<svg width="80" height="80" viewBox="0 0 80 80" fill="none" xmlns="http://www.w3.org/2000/svg">
<path d="M23.3333 56.6667V60C23.3333 60.8841 23.6844 61.7319 24.3096 62.357C24.9347 62.9821 25.7825 63.3333 26.6666 63.3333H53.3333C54.2173 63.3333 55.0652 62.9821 55.6903 62.357C56.3154 61.7319 56.6666 60.8841 56.6666 60V56.6667C56.6666 54.0145 55.613 51.471 53.7377 49.5956C51.8623 47.7202 49.3188 46.6667 46.6666 46.6667H33.3333C30.6811 46.6667 28.1375 47.7202 26.2622 49.5956C24.3868 51.471 23.3333 54.0145 23.3333 56.6667ZM49.9999 26.6667C49.9999 29.3188 48.9464 31.8624 47.071 33.7377C45.1956 35.6131 42.6521 36.6667 39.9999 36.6667C37.3478 36.6667 34.8042 35.6131 32.9288 33.7377C31.0535 31.8624 29.9999 29.3188 29.9999 26.6667C29.9999 24.0145 31.0535 21.471 32.9288 19.5956C34.8042 17.7202 37.3478 16.6667 39.9999 16.6667C42.6521 16.6667 45.1956 17.7202 47.071 19.5956C48.9464 21.471 49.9999 24.0145 49.9999 26.6667Z" stroke="white" stroke-width="7"/>
</svg>
