<svg width="81" height="80" viewBox="0 0 81 80" fill="none" xmlns="http://www.w3.org/2000/svg">
<path d="M47.9733 34.8167L60.4 6.66666M31.4533 35.44L17.0667 6.66666M42.94 33.4933L29.85 6.66666M48.2667 6.66666L44.8 15M20.4 53.3333C20.4 58.6377 22.5071 63.7247 26.2578 67.4755C30.0086 71.2262 35.0957 73.3333 40.4 73.3333C45.7043 73.3333 50.7914 71.2262 54.5421 67.4755C58.2929 63.7247 60.4 58.6377 60.4 53.3333C60.4 48.029 58.2929 42.9419 54.5421 39.1912C50.7914 35.4405 45.7043 33.3333 40.4 33.3333C35.0957 33.3333 30.0086 35.4405 26.2578 39.1912C22.5071 42.9419 20.4 48.029 20.4 53.3333Z" stroke="white" stroke-width="6.875" stroke-linecap="round" stroke-linejoin="round"/>
</svg>
