<svg width="81" height="80" viewBox="0 0 81 80" fill="none" xmlns="http://www.w3.org/2000/svg">
<path d="M66.8665 66.6667L53.3665 53.1667M53.3665 53.1667C55.5333 50.9999 57.2521 48.4275 58.4248 45.5964C59.5975 42.7653 60.201 39.731 60.201 36.6667C60.201 33.6023 59.5975 30.568 58.4248 27.7369C57.2521 24.9059 55.5333 22.3335 53.3665 20.1667C51.1997 17.9999 48.6273 16.2811 45.7962 15.1084C42.9652 13.9357 39.9308 13.3322 36.8665 13.3322C33.8022 13.3322 30.7678 13.9357 27.9368 15.1084C25.1057 16.2811 22.5333 17.9999 20.3665 20.1667C15.9904 24.5427 13.532 30.478 13.532 36.6667C13.532 42.8554 15.9904 48.7906 20.3665 53.1667C24.7426 57.5427 30.6778 60.0012 36.8665 60.0012C43.0552 60.0012 48.9904 57.5427 53.3665 53.1667Z" stroke="white" stroke-width="9.16667" stroke-linecap="round" stroke-linejoin="round"/>
</svg>
