<svg width="81" height="80" viewBox="0 0 81 80" fill="none" xmlns="http://www.w3.org/2000/svg">
<path d="M35.5999 73.3333C18.1109 73.3333 3.93327 58.4095 3.93327 40C3.93327 21.5905 18.1109 6.66666 35.5999 6.66666C53.089 6.66666 67.2666 21.5905 67.2666 40C67.2666 58.4095 53.089 73.3333 35.5999 73.3333Z" stroke="white" stroke-width="7" stroke-linecap="round" stroke-linejoin="round"/>
<path d="M43.9333 29.3333C41.8122 27.6123 39.1649 26.671 36.4333 26.6667C29.53 26.6667 23.9333 32.6333 23.9333 40C23.9333 47.3667 29.53 53.3333 36.4333 53.3333C39.2467 53.3333 41.8433 52.34 43.9333 50.6667" stroke="white" stroke-width="7" stroke-linecap="round" stroke-linejoin="round"/>
<path d="M33.9333 6.66666C48.3767 6.66666 77.2667 9.99999 77.2667 40C77.2667 70 48.3767 73.3333 33.9333 73.3333" stroke="white" stroke-width="7"/>
</svg>
